name ./resultDataOpenSim/trcMotMarkerGrf/sub06/grf-04-06.mot
datacolumns 19
datarows 10
range 1.10800000 1.14400000
endheader

                time	     ground_force_vx	     ground_force_vy	     ground_force_vz	     ground_force_px	     ground_force_py	     ground_force_pz	   l_ground_force_vx	   l_ground_force_vy	   l_ground_force_vz	   l_ground_force_px	   l_ground_force_py	   l_ground_force_pz	     ground_torque_x	     ground_torque_y	     ground_torque_z	   l_ground_torque_x	   l_ground_torque_y	   l_ground_torque_z	
          1.10800000	          0.00000000	          0.00000000	          0.00000000	          0.00000000	          0.00000000	          0.00000000	        174.70104092	        758.83840908	          6.65778016	          0.02874324	         -0.07500000	          0.00492047	          0.00000000	          0.00000000	          0.00000000	          0.00000000	         -2.13828408	          0.00000000	
          1.11200000	          0.00000000	          0.00000000	          0.00000000	          0.00000000	          0.00000000	          0.00000000	        181.36889941	        756.99360586	          5.24956563	          0.02937318	         -0.07500000	          0.00524546	          0.00000000	          0.00000000	          0.00000000	          0.00000000	         -2.17735054	          0.00000000	
          1.11600000	          0.00000000	          0.00000000	          0.00000000	          0.00000000	          0.00000000	          0.00000000	        187.64531121	        752.48627536	          3.80109062	          0.03012307	         -0.07500000	          0.00560802	          0.00000000	          0.00000000	          0.00000000	          0.00000000	         -2.21198319	          0.00000000	
          1.12000000	          0.00000000	          0.00000000	          0.00000000	          0.00000000	          0.00000000	          0.00000000	        193.39582810	        745.19760606	          2.31499706	          0.03101402	         -0.07500000	          0.00602229	          0.00000000	          0.00000000	          0.00000000	          0.00000000	         -2.24193308	          0.00000000	
          1.12400000	          0.00000000	          0.00000000	          0.00000000	          0.00000000	          0.00000000	          0.00000000	        198.47143004	        734.94404307	          0.78127471	          0.03204677	         -0.07500000	          0.00648289	          0.00000000	          0.00000000	          0.00000000	          0.00000000	         -2.26458961	          0.00000000	
          1.12800000	          0.00000000	          0.00000000	          0.00000000	          0.00000000	          0.00000000	          0.00000000	        202.70606105	        721.46398571	         -0.80323102	          0.03317120	         -0.07500000	          0.00695881	          0.00000000	          0.00000000	          0.00000000	          0.00000000	         -2.27503097	          0.00000000	
          1.13200000	        -13.82596433	         74.85539988	          7.32052746	          0.70070135	          0.00000000	          0.09164023	        205.88953040	        704.43078253	         -2.42532473	          0.03431275	         -0.07500000	          0.00740996	          0.00000000	          0.57693891	          0.00000000	          0.00000000	         -2.26695060	          0.00000000	
          1.13600000	        -22.21535755	        178.31089642	         15.57646734	          0.70363886	          0.00000000	          0.09011191	        207.75140166	        683.48229787	         -4.06807960	          0.03541042	         -0.07500000	          0.00780431	          0.00000000	          0.32633768	          0.00000000	          0.00000000	         -2.23424194	          0.00000000	
          1.14000000	        -30.42469489	        268.54827677	         23.18631178	          0.70637516	          0.00000000	          0.08895686	        207.98423221	        658.24457987	         -5.71487857	          0.03641603	         -0.07500000	          0.00811751	          0.00000000	          0.02119602	          0.00000000	          0.00000000	         -2.17266764	          0.00000000	
          1.14400000	        -38.53123867	        337.00660757	         29.35649010	          0.70824939	          0.00000000	          0.08864994	        206.29068843	        628.42088731	         -7.32082428	          0.03731555	         -0.07500000	          0.00833890	          0.00000000	         -0.36061204	          0.00000000	          0.00000000	         -2.08100589	          0.00000000	
